<svg xmlns="http://www.w3.org/2000/svg" height="800" width="1200" viewBox="-7.54674 -3.149225 65.40508 18.89535"><path d="M2.177 1.0242c.519 0 .5655.4029.6043 1.0534h1.348c0-1.2241-.6121-2.0761-1.9834-2.0761C.4494.0015 0 1.5428 0 3.0072c0 1.596.5888 2.727 2.0299 2.727.4184 0 .8985-.1786 1.2082-.5345l.2713.5111h.581V2.8833H2.1849v.9296h.697c0 .3485-.2014.8985-.6738.8985-.6508 0-.7052-.7045-.7052-1.8358 0-1.0224.0854-1.8514.6742-1.8514m4.059 1.3323h-.271V1.1327h.2326c.4646 0 .9063.0462.9063.6198 0 .4417-.3412.604-.8679.604m1.3406.5887c.5422-.2014.9214-.6893.9214-1.2703 0-1.0848-.8054-1.565-1.8513-1.565H4.5707v5.516h1.3945V3.2396h.465l.6893 2.3865H8.498zm3.1866-1.921c.6427 0 .6427.7588.6427 1.844 0 1.0844 0 1.8432-.6427 1.8432-.6431 0-.6431-.7588-.6431-1.8432 0-1.0852 0-1.844.643-1.844M9.7456 4.6948c.108-.004.2586.053.2999.1412.1044.238.0247.4568.0116.6085a5.3724 5.3724 0 01-.018.1743c.001.001.0025.002.0036.003.2116.072.4505.1122.7207.1122 1.6422 0 2.1456-1.4563 2.1456-2.866 0-1.4104-.5034-2.8667-2.1456-2.8667-1.6425 0-2.146 1.4563-2.146 2.8667 0 .931.2212 1.881.8435 2.4197.0145-.1235.0325-.241.0558-.346.0229-.103.0878-.2414.229-.247m5.5016 1.0395c1.2086 0 1.929-.8135 1.929-2.022l-1.2086-.1087c-.031.6896-.1475 1.108-.6587 1.108-.6505 0-.7048-.7048-.7048-1.8358 0-1.0224.0854-1.8514.6741-1.8514.5035 0 .5966.6424.5966 1.0146h1.3014c0-1.1388-.5966-2.0377-1.929-2.0377-1.6969 0-2.146 1.5417-2.146 2.8667 0 1.433.4569 2.8663 2.146 2.8663m5.8211-1.2239H18.992V3.3638h1.3945V2.2945H18.992V1.1787h2.0764V.1101h-3.4706v5.5157h3.4706zm2.0681-2.1538h-.2709V1.1327h.2325c.4646 0 .906.0462.906.6198 0 .4417-.3409.604-.8676.604m2.262 3.2695l-.9218-2.6808c.5423-.2014.9219-.6893.9219-1.2703 0-1.0848-.8054-1.565-1.851-1.565h-2.0769v5.516h1.395V3.2396h.4645L24.02 5.626zM28.2575.11l-.8756 2.1688L26.6537.11h-1.4566l1.379 3.3697V5.626h1.3946V3.4024L29.4967.11zm2.1976 1.0302c.1983-.3718.4713-.5867.9504-.5867.5204 0 .7684.248.95.5948.2311.4297.314 1.0904.314 1.7265 0 .5697-.0667 1.2643-.314 1.7265-.1901.3552-.4547.5863-.9338.5863-.4706 0-.7517-.1813-.9666-.5944-.231-.4382-.3132-1.0986-.3132-1.7184 0-.5863.074-1.2721.3132-1.7346m.9666 4.601c1.6443 0 1.9417-1.6603 1.9417-2.8664C33.3634 1.644 33.0576 0 31.4217 0c-1.6848 0-1.9741 1.7184-1.9741 2.8748 0 1.0985.2642 2.8663 1.9741 2.8663m4.1153 0c1.6933 0 1.6933-1.2223 1.6933-2.0485V.1158h-.628v3.61c0 .7185 0 1.4537-1.0406 1.4537-1.0076 0-1.0076-.6939-1.0076-1.4206V.1158h-.6692v3.643c0 .826.0413 1.9823 1.652 1.9823m3.2467-.1151h.6693V.6774h1.2315V.116H37.56v.5616h1.2237zm4.9894-.5537h-2.0898V.1158h-.6692v5.51h2.759zm.9833-2.0238h1.6538v-.5539h-1.6538V.6694h2.1502V.1159h-2.8194v5.51h2.8854v-.5535h-2.2162zM47.1867.6776h1.2241V5.626h.6689V.6776h1.2319v-.562h-3.125z" fill="#b71f36"/><path d="M40.2234 8.5288c.0356.01.0991.0466.0116.1905-.2137.344-.6681.5394-.968.538-.1294-.4703.5828-.8315.9564-.7285m.743.852c-.2004.13-.4008.2536-.6058.329-.1739.0382-.485.1017-.6942-.0313.4755-.0981.9006-.4287 1.0745-.8714.0522-.133.1549-.4787-.157-.6844-.3372-.2102-.8375-.1093-1.174.06-.1697.0854-.23.1129-.381.278-.2575.2812-.297.5584-.2734.8555-.2882.0409-.5408-.059-.7447-.333.2113-.2226.9444-.8418.6664-1.1194-.0427-.0427-.1993-.1485-.3771.0268-.0787.0709-.2773.2815-.2854.2896-.1002.1119-.2332.3359-.388.4332-.09.0162-.1384.0148-.203.0766-.0412.0441-.0821.1087-.086.2445-.0198.007-.1037.0829-.1475.1436-.0794-.5715-.0744-1.2037-.0367-1.7773.0226-.3373.2526-1.0523-.0571-1.228-.0738-.042-.2018-.0243-.2477.072-.1898.471-.2032 1.1564-.2053 1.6633-.0035.7454-.0279 1.561.1746 2.2783.042.0646.1983.1224.3743.0988.0141-.1937.1528-.404.2643-.5525-.0081.0106.2243-.2222.217-.193.2998.3292.7644.5116 1.2583.3937.097.1242.1968.1764.2794.2293.2963.1902.6978.157.9878.146.223-.018.4395-.0507.635-.14.1337-.0635.26-.116.3351-.2293.1087-.1527.1436-.2931.0081-.4282-.0522-.0275-.1288-.0893-.211-.0303m2.199-1.7227c-.1087-.0483-.1595-.0208-.2463-.019-.3125.007-.647.0332-.8946.0423.0212-.2751.1147-.6917.1147-.939.056-.2195-.0145-.3839-.1683-.3853-.065 0-.1757.0102-.2403.072-.1517.3059-.187.5959-.2085.9314-.0208.321.0145.3739-.1686.3908-.3168.024-.3048.272-.2427.4858.079.138.2752.03.362.096.0158.1216.0064.3403 0 .4335-.0184.2494.0345.8847.1756 1.349.023.1785.188.3584.3292.3316.1411-.0437.1513-.1464.168-.2159.0377-.1647-.0029-.5059-.0308-.6752-.0564-.3662-.1256-.9165-.0607-1.287.2173-.0821.4844-.08.7938-.0877.1189-.003.235.0349.3115-.0236.1058-.059.1457-.18.133-.276-.012-.0884-.0558-.1706-.127-.2236M31.5722 7.627c-.0007-.004-.0163-.099-.0177-.1057-.1302-.447-.425-.4378-.6745-.2777-.3457.2209-.6569.755-.791.9938-.055-.399-.1562-1.0516-.673-1.107-.1725-.013-.4.1083-.5154.2282-.0713.0744-.1993.2463-.2784.3976-.0268-.3143-.0645-.562-.115-.8523-.0092-.054-.0254-.1591-.1093-.2036a.4686.4686 0 00-.3299-.0395c-.0307.007-.0871.0445-.0853.1595.0105.6431.2226 1.2732.231 1.9463 0 .3626.0226.7027.0353 1.0657.0067.2053.223.6657.5175.4248a4.294 4.294 0 01-.0151-.4692c.007-.4156.0635-.8608.1545-1.209.0427-.1633.2716-.7973.576-.8855.1764.0952.1655.4276.1105.7938-.0561.3704-.0766.7733-.0487 1.0625.018.1867.0829.3447.2353.4505.0684.0261.1471.053.2406 0 .0751-.3136.1446-.5753.2561-.8826.1189-.3292.3034-.9437.648-1.186.0368-.0261.137-.084.1588-.0265.0416.1277-.002.3552-.0085.551-.008.2367.0007.375-.001.6117-.0015.2335.0461 1.3392.5308 1.1173.1711-.1239.0237-.4918 0-.6499-.122-.6328.0808-1.2855-.0317-1.9081m-8.4205-.8896c-.1312-.1105-.2677-.2392-.4533-.2085-.0794.042-.1192.1083-.1263.2236-.0031.1175.0695.2357.0706.2367.1227.1517.2744.3013.4554.222.1059-.059.1355-.1235.1334-.2763.0078-.1178-.0798-.1975-.0798-.1975m10.277 2.6447c-.3612.0776-.8763.1573-1.0527-.2367-.078-.2311.1637-.4375.3666-.4664.4124-.059.8438.2176.8953.6403zm.8248-.26c-.023-.0254-.1778.0646-.1661-.0325.1294-.6499-.042-1.5166-.5705-1.718-.1926-.0809-.4402-.0855-.647-.0548-.1633.024-.2878.0501-.398.1115-.2567.144-.1629.4251-.075.472.1852.1104.272.0374.4123.003.1962-.0473.3768-.0692.5874-.003.1535.0483.255.2367.267.4368a.6355.6355 0 01-.0144.1806c-.0836-.1588-.3905-.355-.6833-.3778-.6992-.0554-1.5713.5824-.9074 1.464.259.2766.5317.31.81.356.3221.0528 1.2732-.0223 1.489-.2971.0534-.1926.0855-.325-.0334-.4794-.0353-.0441-.0628-.054-.0706-.0614m-13.9333.7063c-.2674.0402-.3256.031-.3852-.0243-.0177-.0706.0367-.1771.0942-.237.0942-.0865.2998-.1803.4088-.2079.2805-.0709.5818-.0123.7627.1729-.1016.097-.613.2561-.8805.2963m1.6743-.5168c-.0579.016-.188.0653-.3041.0864.2385-.7179.0519-1.6478-.5528-1.9237-.4724-.08-1.2503.2812-1.4912.6488-.2046.345-.1503.4318-.0466.5697.1884.1118.3235-.0582.3754-.12.2522-.3009.8008-.5503 1.138-.4977.0572.009.0946.0628.1267.1125.1415.2195.1104.5994.0063.8287-.6205-.4547-2.0058-.012-1.888.8629.0631.465.5958.6145.9895.562.434-.0402.8707-.3136 1.51-.4152.2116-.0353.3375-.1105.3615-.1983.0512-.187.041-.309.0088-.375-.032-.066-.1365-.1676-.2335-.1411m.8336-1.506c-.0586.006-.1532-.0007-.1944.17-.155.6368-.1782 1.4475-.0237 2.0514.025.0804.1133.3553.1926.4325.1524.1524.351.0441.3514-.1901.0018-.7391-.204-1.396.012-2.1375.0324-.0917-.0198-.2152-.1207-.2974-.0458-.0314-.1323-.0367-.2173-.029m2.7297.1251c-.7137.199-.9821.9532-1.4136 1.4432.0124-.1577.0032-.5733-.011-.7045-.036-.2995-.0394-.779-.412-.7955-.0938-.004-.1566.06-.1467.2074.0225.3295-.0205.6801.0434.9821.0571.3366.0994.858.2645 1.1296.114.2466.2643.1418.4064.0945.162-.3143.3521-.7193.533-.985.1923-.2825.5028-.786.9-.799.0833.3397.036.7169.0307 1.063.0166.2038.0226.4222.074.5743.0498.1524.0971.26.2873.2914.0832.004.1492-.0268.2067-.0931.0748-.1852.0476-.3197-.0127-.5564-.102-.4201.1146-2.093-.75-1.852M18.277 8.9338c-.1472.259-.3235.4177-.5412.6117-.18.1605-.5465.3704-.6625.309-.217-.1545.2776-.6928.3482-.7634.1922-.1922.6142-.5806.9264-.4148.018.0737-.043.201-.071.2575m.604-.7599c.0399-.2953-.41-.3097-.5747-.1337-.182.006-.268-.0106-.515.086-.5338.2082-1.3494.9639-1.295 1.6564 0 .0268.0592.2596.0719.289.3888.805 1.4753.0468 1.876-.3366.0128-.0127.0678-.0836.1684-.193.0349.1446.0631.4367.072.5531.0617.4632.0627.973-.1726 1.4023-.1312.2396-.2639.4294-.5468.5232-.2935.065-.3725-.1933-.483-.435-.0285-.0822-.2042-.1051-.2811-.0413-.2988.3288.0116.8234.448 1.005.2399.1063.6925.024.8904-.1453.8262-.7052.7193-1.82.5542-2.862-.0275-.1725-.2007-1.1138-.2127-1.3681" fill="#f1af1d"/><path d="M42.9021 7.1803v-.629h.231v-.135h-.6219v.135h.2315v.629zm.6915-.1617h-.0021l-.1383-.6026h-.2329v.7645h.149V6.542h.002l.1394.6385h.1566l.1422-.6385h.0025v.6385h.1488V6.416h-.231zM12.8441 9.5497c-.0307-.3573.3616-.6921.6696-.7288.1852.0282.1496.507.1728.6184-.2525.0692-.6085.2822-.8424.1104m1.6535-.388c-.079.0399-.1542.097-.2293.0706.1686-.5828.5298-2.0465-.49-2.0465-.0321-.003-.1531-.007-.1923 0-.479.0578-1.233.3891-1.0195.9529.036.0956.1083.1157.1954.0956.207-.0487.497-.3267.5765-.3616.1439-.066.5245-.2544.6808-.0145.0194.1164-.013.6307-.145.6981-.115-.2445-.2836-.2797-.4568-.2677-.3793.0265-.8636.48-1.0337.7482-.1848.2939-.0374.9063.2487 1.0643.4079.2745 1.059-.019 1.4538-.1407.3345-.1034.8086-.1637.7493-.5624-.0028-.091-.1086-.3422-.338-.2363m2.58-1.1113c.1189-.0134.1464-.152.1189-.2822-.1012-.1894-.3665-.2642-.569-.2346-.065.01-.2819.0847-.458.205-.1724.122-.6498.6974-.6244.7468-.0155-.1923.1179-.513-.0416-.6745-.1111-.1122-.1725-.114-.2607-.1005-.0878.0138-.147.123-.1584.2384-.0705.7102-.0476 1.3977.0741 2.129.023.138.1178.241.1958.2837.1005.0568.277.1189.3362.0152.1037-.2844.0063-.8347.0818-1.1532.119-.5028.4848-1.0005 1.1113-1.1423.0483-.0102.139-.0335.194-.0307m18.9865-.5882c-.0649.0208-.2233.0854-.4173.2265-.0988.074-.5405.4953-.573.6.0096-.2388.0389-.7965-.3143-.744-.031.005-.1418.0981-.1577.1969-.075.4632-.0225.8802.0131 1.3716.0187.2593.0046.9655.1972 1.0788.0938.0409.2512.0579.3754.009.1464-.5087-.0262-1.0192.267-1.5184.1468-.2445.4237-.4939.6703-.6364.193-.038.4734-.1076.2653-.4946-.0723-.099-.216-.1245-.326-.0893m-24.725.6954c.388.147.2645.429.0546.6145-.4212.3828-.9779.5497-1.4658.7317-.0494-.4551-.0367-.9437-.0236-1.4072.5719-.0893.9878-.133 1.4347.061m-1.3-2.5393a6.5942 6.5942 0 00.0184-.1743c.0127-.1514.0924-.3704-.012-.6086-.041-.0882-.1919-.145-.2998-.1407-.1412.006-.206.144-.2286.2466-.0237.1051-.0413.223-.0561.3464-.0459.3912-.055.8446-.0738 1.1705 0-.004-.0176.7409-.013 1.1113-.4078.061-1.3498.2713-1.5875.6738-.0459.1436.017.2296.0483.2963.0025.006.1203.1838.3126.1683.1753-.0145.3693-.1623.5288-.248.2286-.1143.507-.1838.6494-.2406-.0123.5874-.0091.9416.0484 1.4908-.1845.037-.5885.076-.6495.2406-.0607.1648.067.4703.1443.5056.0773.0353.183.0473.3845 0 .11-.0293.1746-.0586.2452-.0762.0808.103.1894.1986.4057.1234.1425-.0952.1764-.206.1471-.3528.2579-.087.4554-.158.5997-.2176.2999-.1235.7098-.3655.9836-.5595.1316-.0938.2748-.2205.3662-.3666.1672-.2674.1672-.4028.1555-.673-.0296-.3296-.2765-.5589-.6424-.7402-.4219-.193-1.0767-.1958-1.5712-.1302 0-.4586.0225-.8477.044-1.3229.0064-.1421.0325-.3471.0523-.5224" fill="#f1af1d"/></svg>